<svg xmlns="http://www.w3.org/2000/svg" version="1.1" xmlns:xlink="http://www.w3.org/1999/xlink" xmlns:svgjs="http://svgjs.dev/svgjs" viewBox="0 0 640 800"><g stroke-width="3.5" stroke="hsl(205, 69%, 50%)" fill="none" stroke-linecap="butt"><line x1="0" y1="0" x2="48" y2="48" opacity="1.00"></line><line x1="48" y1="0" x2="96" y2="48" opacity="0.93"></line><line x1="96" y1="0" x2="144" y2="48" opacity="0.86"></line><line x1="192" y1="0" x2="144" y2="48" opacity="0.79"></line><line x1="192" y1="0" x2="240" y2="48" opacity="0.72"></line><line x1="240" y1="0" x2="288" y2="48" opacity="0.64"></line><line x1="336" y1="0" x2="288" y2="48" opacity="0.57"></line><line x1="384" y1="0" x2="336" y2="48" opacity="0.50"></line><line x1="432" y1="0" x2="384" y2="48" opacity="0.43"></line><line x1="432" y1="0" x2="480" y2="48" opacity="0.36"></line><line x1="480" y1="0" x2="528" y2="48" opacity="0.29"></line><line x1="528" y1="0" x2="576" y2="48" opacity="0.22"></line><line x1="624" y1="0" x2="576" y2="48" opacity="0.15"></line><line x1="672" y1="0" x2="624" y2="48" opacity="0.07"></line><line x1="48" y1="48" x2="0" y2="96" opacity="1.00"></line><line x1="48" y1="48" x2="96" y2="96" opacity="0.93"></line><line x1="96" y1="48" x2="144" y2="96" opacity="0.86"></line><line x1="144" y1="48" x2="192" y2="96" opacity="0.79"></line><line x1="240" y1="48" x2="192" y2="96" opacity="0.72"></line><line x1="240" y1="48" x2="288" y2="96" opacity="0.64"></line><line x1="336" y1="48" x2="288" y2="96" opacity="0.57"></line><line x1="336" y1="48" x2="384" y2="96" opacity="0.50"></line><line x1="384" y1="48" x2="432" y2="96" opacity="0.43"></line><line x1="432" y1="48" x2="480" y2="96" opacity="0.36"></line><line x1="480" y1="48" x2="528" y2="96" opacity="0.29"></line><line x1="528" y1="48" x2="576" y2="96" opacity="0.22"></line><line x1="576" y1="48" x2="624" y2="96" opacity="0.15"></line><line x1="624" y1="48" x2="672" y2="96" opacity="0.07"></line><line x1="48" y1="96" x2="0" y2="144" opacity="1.00"></line><line x1="96" y1="96" x2="48" y2="144" opacity="0.93"></line><line x1="144" y1="96" x2="96" y2="144" opacity="0.86"></line><line x1="192" y1="96" x2="144" y2="144" opacity="0.79"></line><line x1="240" y1="96" x2="192" y2="144" opacity="0.72"></line><line x1="288" y1="96" x2="240" y2="144" opacity="0.64"></line><line x1="336" y1="96" x2="288" y2="144" opacity="0.57"></line><line x1="336" y1="96" x2="384" y2="144" opacity="0.50"></line><line x1="384" y1="96" x2="432" y2="144" opacity="0.43"></line><line x1="480" y1="96" x2="432" y2="144" opacity="0.36"></line><line x1="480" y1="96" x2="528" y2="144" opacity="0.29"></line><line x1="576" y1="96" x2="528" y2="144" opacity="0.22"></line><line x1="624" y1="96" x2="576" y2="144" opacity="0.15"></line><line x1="624" y1="96" x2="672" y2="144" opacity="0.07"></line><line x1="48" y1="144" x2="0" y2="192" opacity="1.00"></line><line x1="48" y1="144" x2="96" y2="192" opacity="0.93"></line><line x1="96" y1="144" x2="144" y2="192" opacity="0.86"></line><line x1="192" y1="144" x2="144" y2="192" opacity="0.79"></line><line x1="192" y1="144" x2="240" y2="192" opacity="0.72"></line><line x1="240" y1="144" x2="288" y2="192" opacity="0.64"></line><line x1="336" y1="144" x2="288" y2="192" opacity="0.57"></line><line x1="384" y1="144" x2="336" y2="192" opacity="0.50"></line><line x1="384" y1="144" x2="432" y2="192" opacity="0.43"></line><line x1="480" y1="144" x2="432" y2="192" opacity="0.36"></line><line x1="480" y1="144" x2="528" y2="192" opacity="0.29"></line><line x1="576" y1="144" x2="528" y2="192" opacity="0.22"></line><line x1="576" y1="144" x2="624" y2="192" opacity="0.15"></line><line x1="624" y1="144" x2="672" y2="192" opacity="0.07"></line><line x1="0" y1="192" x2="48" y2="240" opacity="1.00"></line><line x1="96" y1="192" x2="48" y2="240" opacity="0.93"></line><line x1="96" y1="192" x2="144" y2="240" opacity="0.86"></line><line x1="144" y1="192" x2="192" y2="240" opacity="0.79"></line><line x1="240" y1="192" x2="192" y2="240" opacity="0.72"></line><line x1="240" y1="192" x2="288" y2="240" opacity="0.64"></line><line x1="336" y1="192" x2="288" y2="240" opacity="0.57"></line><line x1="384" y1="192" x2="336" y2="240" opacity="0.50"></line><line x1="384" y1="192" x2="432" y2="240" opacity="0.43"></line><line x1="432" y1="192" x2="480" y2="240" opacity="0.36"></line><line x1="480" y1="192" x2="528" y2="240" opacity="0.29"></line><line x1="528" y1="192" x2="576" y2="240" opacity="0.22"></line><line x1="624" y1="192" x2="576" y2="240" opacity="0.15"></line><line x1="624" y1="192" x2="672" y2="240" opacity="0.07"></line><line x1="0" y1="240" x2="48" y2="288" opacity="1.00"></line><line x1="96" y1="240" x2="48" y2="288" opacity="0.93"></line><line x1="144" y1="240" x2="96" y2="288" opacity="0.86"></line><line x1="144" y1="240" x2="192" y2="288" opacity="0.79"></line><line x1="192" y1="240" x2="240" y2="288" opacity="0.72"></line><line x1="288" y1="240" x2="240" y2="288" opacity="0.64"></line><line x1="288" y1="240" x2="336" y2="288" opacity="0.57"></line><line x1="336" y1="240" x2="384" y2="288" opacity="0.50"></line><line x1="432" y1="240" x2="384" y2="288" opacity="0.43"></line><line x1="432" y1="240" x2="480" y2="288" opacity="0.36"></line><line x1="480" y1="240" x2="528" y2="288" opacity="0.29"></line><line x1="528" y1="240" x2="576" y2="288" opacity="0.22"></line><line x1="624" y1="240" x2="576" y2="288" opacity="0.15"></line><line x1="672" y1="240" x2="624" y2="288" opacity="0.07"></line><line x1="48" y1="288" x2="0" y2="336" opacity="1.00"></line><line x1="96" y1="288" x2="48" y2="336" opacity="0.93"></line><line x1="144" y1="288" x2="96" y2="336" opacity="0.86"></line><line x1="144" y1="288" x2="192" y2="336" opacity="0.79"></line><line x1="192" y1="288" x2="240" y2="336" opacity="0.72"></line><line x1="240" y1="288" x2="288" y2="336" opacity="0.64"></line><line x1="336" y1="288" x2="288" y2="336" opacity="0.57"></line><line x1="384" y1="288" x2="336" y2="336" opacity="0.50"></line><line x1="384" y1="288" x2="432" y2="336" opacity="0.43"></line><line x1="432" y1="288" x2="480" y2="336" opacity="0.36"></line><line x1="480" y1="288" x2="528" y2="336" opacity="0.29"></line><line x1="576" y1="288" x2="528" y2="336" opacity="0.22"></line><line x1="576" y1="288" x2="624" y2="336" opacity="0.15"></line><line x1="624" y1="288" x2="672" y2="336" opacity="0.07"></line><line x1="0" y1="336" x2="48" y2="384" opacity="1.00"></line><line x1="48" y1="336" x2="96" y2="384" opacity="0.93"></line><line x1="144" y1="336" x2="96" y2="384" opacity="0.86"></line><line x1="144" y1="336" x2="192" y2="384" opacity="0.79"></line><line x1="240" y1="336" x2="192" y2="384" opacity="0.72"></line><line x1="240" y1="336" x2="288" y2="384" opacity="0.64"></line><line x1="336" y1="336" x2="288" y2="384" opacity="0.57"></line><line x1="384" y1="336" x2="336" y2="384" opacity="0.50"></line><line x1="384" y1="336" x2="432" y2="384" opacity="0.43"></line><line x1="432" y1="336" x2="480" y2="384" opacity="0.36"></line><line x1="528" y1="336" x2="480" y2="384" opacity="0.29"></line><line x1="576" y1="336" x2="528" y2="384" opacity="0.22"></line><line x1="624" y1="336" x2="576" y2="384" opacity="0.15"></line><line x1="672" y1="336" x2="624" y2="384" opacity="0.07"></line><line x1="0" y1="384" x2="48" y2="432" opacity="1.00"></line><line x1="48" y1="384" x2="96" y2="432" opacity="0.93"></line><line x1="144" y1="384" x2="96" y2="432" opacity="0.86"></line><line x1="192" y1="384" x2="144" y2="432" opacity="0.79"></line><line x1="240" y1="384" x2="192" y2="432" opacity="0.72"></line><line x1="288" y1="384" x2="240" y2="432" opacity="0.64"></line><line x1="336" y1="384" x2="288" y2="432" opacity="0.57"></line><line x1="384" y1="384" x2="336" y2="432" opacity="0.50"></line><line x1="384" y1="384" x2="432" y2="432" opacity="0.43"></line><line x1="480" y1="384" x2="432" y2="432" opacity="0.36"></line><line x1="528" y1="384" x2="480" y2="432" opacity="0.29"></line><line x1="528" y1="384" x2="576" y2="432" opacity="0.22"></line><line x1="624" y1="384" x2="576" y2="432" opacity="0.15"></line><line x1="624" y1="384" x2="672" y2="432" opacity="0.07"></line><line x1="48" y1="432" x2="0" y2="480" opacity="1.00"></line><line x1="48" y1="432" x2="96" y2="480" opacity="0.93"></line><line x1="144" y1="432" x2="96" y2="480" opacity="0.86"></line><line x1="192" y1="432" x2="144" y2="480" opacity="0.79"></line><line x1="240" y1="432" x2="192" y2="480" opacity="0.72"></line><line x1="240" y1="432" x2="288" y2="480" opacity="0.64"></line><line x1="288" y1="432" x2="336" y2="480" opacity="0.57"></line><line x1="384" y1="432" x2="336" y2="480" opacity="0.50"></line><line x1="384" y1="432" x2="432" y2="480" opacity="0.43"></line><line x1="432" y1="432" x2="480" y2="480" opacity="0.36"></line><line x1="528" y1="432" x2="480" y2="480" opacity="0.29"></line><line x1="528" y1="432" x2="576" y2="480" opacity="0.22"></line><line x1="576" y1="432" x2="624" y2="480" opacity="0.15"></line><line x1="624" y1="432" x2="672" y2="480" opacity="0.07"></line><line x1="0" y1="480" x2="48" y2="528" opacity="1.00"></line><line x1="96" y1="480" x2="48" y2="528" opacity="0.93"></line><line x1="96" y1="480" x2="144" y2="528" opacity="0.86"></line><line x1="144" y1="480" x2="192" y2="528" opacity="0.79"></line><line x1="192" y1="480" x2="240" y2="528" opacity="0.72"></line><line x1="240" y1="480" x2="288" y2="528" opacity="0.64"></line><line x1="336" y1="480" x2="288" y2="528" opacity="0.57"></line><line x1="384" y1="480" x2="336" y2="528" opacity="0.50"></line><line x1="384" y1="480" x2="432" y2="528" opacity="0.43"></line><line x1="432" y1="480" x2="480" y2="528" opacity="0.36"></line><line x1="528" y1="480" x2="480" y2="528" opacity="0.29"></line><line x1="576" y1="480" x2="528" y2="528" opacity="0.22"></line><line x1="624" y1="480" x2="576" y2="528" opacity="0.15"></line><line x1="672" y1="480" x2="624" y2="528" opacity="0.07"></line><line x1="0" y1="528" x2="48" y2="576" opacity="1.00"></line><line x1="48" y1="528" x2="96" y2="576" opacity="0.93"></line><line x1="96" y1="528" x2="144" y2="576" opacity="0.86"></line><line x1="192" y1="528" x2="144" y2="576" opacity="0.79"></line><line x1="240" y1="528" x2="192" y2="576" opacity="0.72"></line><line x1="288" y1="528" x2="240" y2="576" opacity="0.64"></line><line x1="288" y1="528" x2="336" y2="576" opacity="0.57"></line><line x1="384" y1="528" x2="336" y2="576" opacity="0.50"></line><line x1="384" y1="528" x2="432" y2="576" opacity="0.43"></line><line x1="432" y1="528" x2="480" y2="576" opacity="0.36"></line><line x1="528" y1="528" x2="480" y2="576" opacity="0.29"></line><line x1="576" y1="528" x2="528" y2="576" opacity="0.22"></line><line x1="624" y1="528" x2="576" y2="576" opacity="0.15"></line><line x1="624" y1="528" x2="672" y2="576" opacity="0.07"></line><line x1="0" y1="576" x2="48" y2="624" opacity="1.00"></line><line x1="96" y1="576" x2="48" y2="624" opacity="0.93"></line><line x1="144" y1="576" x2="96" y2="624" opacity="0.86"></line><line x1="192" y1="576" x2="144" y2="624" opacity="0.79"></line><line x1="240" y1="576" x2="192" y2="624" opacity="0.72"></line><line x1="288" y1="576" x2="240" y2="624" opacity="0.64"></line><line x1="288" y1="576" x2="336" y2="624" opacity="0.57"></line><line x1="384" y1="576" x2="336" y2="624" opacity="0.50"></line><line x1="432" y1="576" x2="384" y2="624" opacity="0.43"></line><line x1="480" y1="576" x2="432" y2="624" opacity="0.36"></line><line x1="480" y1="576" x2="528" y2="624" opacity="0.29"></line><line x1="576" y1="576" x2="528" y2="624" opacity="0.22"></line><line x1="624" y1="576" x2="576" y2="624" opacity="0.15"></line><line x1="672" y1="576" x2="624" y2="624" opacity="0.07"></line><line x1="0" y1="624" x2="48" y2="672" opacity="1.00"></line><line x1="48" y1="624" x2="96" y2="672" opacity="0.93"></line><line x1="96" y1="624" x2="144" y2="672" opacity="0.86"></line><line x1="144" y1="624" x2="192" y2="672" opacity="0.79"></line><line x1="240" y1="624" x2="192" y2="672" opacity="0.72"></line><line x1="288" y1="624" x2="240" y2="672" opacity="0.64"></line><line x1="336" y1="624" x2="288" y2="672" opacity="0.57"></line><line x1="384" y1="624" x2="336" y2="672" opacity="0.50"></line><line x1="432" y1="624" x2="384" y2="672" opacity="0.43"></line><line x1="480" y1="624" x2="432" y2="672" opacity="0.36"></line><line x1="480" y1="624" x2="528" y2="672" opacity="0.29"></line><line x1="576" y1="624" x2="528" y2="672" opacity="0.22"></line><line x1="624" y1="624" x2="576" y2="672" opacity="0.15"></line><line x1="624" y1="624" x2="672" y2="672" opacity="0.07"></line><line x1="0" y1="672" x2="48" y2="720" opacity="1.00"></line><line x1="48" y1="672" x2="96" y2="720" opacity="0.93"></line><line x1="144" y1="672" x2="96" y2="720" opacity="0.86"></line><line x1="192" y1="672" x2="144" y2="720" opacity="0.79"></line><line x1="240" y1="672" x2="192" y2="720" opacity="0.72"></line><line x1="240" y1="672" x2="288" y2="720" opacity="0.64"></line><line x1="336" y1="672" x2="288" y2="720" opacity="0.57"></line><line x1="336" y1="672" x2="384" y2="720" opacity="0.50"></line><line x1="432" y1="672" x2="384" y2="720" opacity="0.43"></line><line x1="480" y1="672" x2="432" y2="720" opacity="0.36"></line><line x1="528" y1="672" x2="480" y2="720" opacity="0.29"></line><line x1="576" y1="672" x2="528" y2="720" opacity="0.22"></line><line x1="624" y1="672" x2="576" y2="720" opacity="0.15"></line><line x1="672" y1="672" x2="624" y2="720" opacity="0.07"></line><line x1="0" y1="720" x2="48" y2="768" opacity="1.00"></line><line x1="48" y1="720" x2="96" y2="768" opacity="0.93"></line><line x1="96" y1="720" x2="144" y2="768" opacity="0.86"></line><line x1="192" y1="720" x2="144" y2="768" opacity="0.79"></line><line x1="192" y1="720" x2="240" y2="768" opacity="0.72"></line><line x1="240" y1="720" x2="288" y2="768" opacity="0.64"></line><line x1="288" y1="720" x2="336" y2="768" opacity="0.57"></line><line x1="336" y1="720" x2="384" y2="768" opacity="0.50"></line><line x1="384" y1="720" x2="432" y2="768" opacity="0.43"></line><line x1="432" y1="720" x2="480" y2="768" opacity="0.36"></line><line x1="528" y1="720" x2="480" y2="768" opacity="0.29"></line><line x1="576" y1="720" x2="528" y2="768" opacity="0.22"></line><line x1="576" y1="720" x2="624" y2="768" opacity="0.15"></line><line x1="672" y1="720" x2="624" y2="768" opacity="0.07"></line><line x1="0" y1="768" x2="48" y2="816" opacity="1.00"></line><line x1="96" y1="768" x2="48" y2="816" opacity="0.93"></line><line x1="96" y1="768" x2="144" y2="816" opacity="0.86"></line><line x1="144" y1="768" x2="192" y2="816" opacity="0.79"></line><line x1="240" y1="768" x2="192" y2="816" opacity="0.72"></line><line x1="240" y1="768" x2="288" y2="816" opacity="0.64"></line><line x1="288" y1="768" x2="336" y2="816" opacity="0.57"></line><line x1="336" y1="768" x2="384" y2="816" opacity="0.50"></line><line x1="384" y1="768" x2="432" y2="816" opacity="0.43"></line><line x1="480" y1="768" x2="432" y2="816" opacity="0.36"></line><line x1="480" y1="768" x2="528" y2="816" opacity="0.29"></line><line x1="576" y1="768" x2="528" y2="816" opacity="0.22"></line><line x1="576" y1="768" x2="624" y2="816" opacity="0.15"></line><line x1="624" y1="768" x2="672" y2="816" opacity="0.07"></line></g></svg>